<svg width="208" height="255" viewBox="0 0 208 255" fill="none" xmlns="http://www.w3.org/2000/svg">
<path d="M188 128.5L104.75 176.564L104.75 80.4356L188 128.5Z" fill="white"/>
<path d="M88.6069 207C81.3996 203.221 74.7636 198.5 68.8622 193M88.6069 207C110 218.216 114.5 228 114.5 235.5C114.5 243 102 251.5 94 253.5M88.6069 207C59.1418 202.172 52 188.5 32 186.5M180 50.6601C173.815 46.6247 167.107 43.3249 160 40.8849C156.429 39.6588 152.757 38.6498 149 37.8736M56.9795 179.5C46.2931 164.622 40 146.372 40 126.651C40 123.219 40.1905 119.832 40.5616 116.5M56.9795 179.5C34.2893 152.439 23.332 145.047 12 140M56.9795 179.5C60.489 184.386 64.4723 188.909 68.8622 193M40.5616 116.5C40.1545 90.3705 33.1527 80.5608 25 62M40.5616 116.5C41.9905 103.667 46.0965 91.6431 52.308 81M52.308 81C57.0411 75.0464 76.5 62 90.5 58.5M52.308 81C54.1312 77.8762 56.1357 74.8714 58.3071 72M92.5 44.3781C104.079 39.0012 116.983 36 130.588 36C136.897 36 143.055 36.6453 149 37.8736M92.5 44.3781C116.701 29.476 122.018 20.2358 130.588 9M92.5 44.3781C78.9548 50.6681 67.2236 60.2092 58.3071 72M68.8622 193C58.737 170.062 53.8815 157.333 56.9795 136.5M58.3071 72C66.2783 50.3403 67.2556 38.8754 63.5 19.5M149 37.8736C166.309 36.6147 175.439 34.6554 189 26" stroke="white" stroke-width="2" stroke-linecap="round"/>
<path d="M38.8639 75.7406C42.5377 84.8533 41.1618 89.4288 37.7446 90.8065C34.3274 92.1841 30.1627 89.8422 26.489 80.7296C22.8152 71.6169 22.8938 58.4302 24.4407 57.8066C25.9875 57.183 35.1901 66.6279 38.8639 75.7406Z" fill="white"/>
<path d="M70.8186 31.3246C71.3147 39.9448 68.8825 43.3675 65.6499 43.5535C62.4174 43.7396 59.6085 40.6186 59.1123 31.9984C58.6161 23.3782 62.3898 12.4211 63.8531 12.3369C65.3164 12.2527 70.3224 22.7043 70.8186 31.3246Z" fill="white"/>
<path d="M23.1582 139.512C30.6479 144.201 32.0651 148.258 30.3067 151.067C28.5483 153.875 24.28 154.372 16.7903 149.683C9.30054 144.994 2.38796 135.357 3.18395 134.086C3.97994 132.814 15.6684 134.823 23.1582 139.512Z" fill="white"/>
<path d="M47.2445 186.241C54.8589 188.579 57.0381 191.781 56.1614 194.637C55.2846 197.492 51.6839 198.919 44.0696 196.581C36.4552 194.243 28.1906 187.463 28.5875 186.17C28.9844 184.878 39.6302 183.903 47.2445 186.241Z" fill="white"/>
<path d="M63.7442 148.046C63.1808 156.865 60.2861 160.041 56.9792 159.829C53.6722 159.618 51.2052 156.1 51.7686 147.281C52.3319 138.462 57.5223 127.799 59.0193 127.894C60.5162 127.99 64.3075 139.228 63.7442 148.046Z" fill="white"/>
<path d="M87.6012 66.2839C79.8034 68.378 76.2071 66.8023 75.4218 63.8782C74.6366 60.954 76.9596 57.7887 84.7574 55.6945C92.5551 53.6004 103.305 54.971 103.66 56.2947C104.016 57.6183 95.3989 64.1897 87.6012 66.2839Z" fill="white"/>
<path d="M129.177 19.7385C124.368 25.3814 120.827 26.0613 118.711 24.258C116.595 22.4547 116.705 18.851 121.513 13.2081C126.322 7.56511 135.167 3.00677 136.125 3.82307C137.083 4.63938 133.985 14.0955 129.177 19.7385Z" fill="white"/>
<path d="M181.925 34.6132C175.585 36.9788 172.46 35.9492 171.573 33.5716C170.685 31.1941 172.373 28.3688 178.713 26.0033C185.053 23.6378 194.131 23.9291 194.532 25.0053C194.934 26.0816 188.265 32.2477 181.925 34.6132Z" fill="white"/>
<path d="M181.87 61.196C173.991 55.0377 172.872 50.305 175.181 47.3502C177.491 44.3954 182.354 44.3374 190.233 50.4957C198.113 56.6539 204.761 68.3137 203.716 69.6513C202.67 70.9888 189.75 67.3543 181.87 61.196Z" fill="white"/>
</svg>
